<svg width="43" height="41" viewBox="0 0 43 41" fill="none" xmlns="http://www.w3.org/2000/svg">
<rect x="1.16846" y="37" width="34.8574" height="4" rx="2" fill="#D43227"/>
<path d="M16.9531 33.4733C16.1624 32.702 16.1624 31.4515 16.9531 30.6803L32.2131 15.7956C33.0038 15.0243 34.2858 15.0243 35.0766 15.7956L35.1129 15.831C35.9036 16.6023 35.9036 17.8528 35.1129 18.624L19.8529 33.5087C19.0621 34.28 17.7801 34.28 16.9894 33.5087L16.9531 33.4733Z" fill="#D43227"/>
<path d="M18.5 32.0178V3.99997" stroke="#D43227" stroke-width="4" stroke-linecap="round"/>
<path d="M1.46807 15.5361C2.25878 14.7649 3.54078 14.7649 4.33149 15.5361L19.5915 30.4208C20.3822 31.1921 20.3822 32.4426 19.5915 33.2138L19.5552 33.2493C18.7645 34.0205 17.4825 34.0205 16.6918 33.2492L1.43174 18.3646C0.641026 17.5933 0.641028 16.3428 1.43174 15.5716L1.46807 15.5361Z" fill="#D43227"/>
</svg>
